<?xml version="1.0" encoding="UTF-8"?> <svg xmlns="http://www.w3.org/2000/svg" width="213" height="124" viewBox="0 0 213 124" fill="none"><path d="M92.2366 86.6492C92.2366 86.6492 92.2169 86.5514 92.1698 86.3679C92.1238 86.1832 92.0551 85.9089 91.9525 85.5576C91.8561 85.2013 91.7196 84.7731 91.5573 84.2641C91.4045 83.746 91.1737 83.1953 90.9197 82.5641L90.5005 81.576C90.3478 81.2334 90.1945 80.8657 90.0048 80.5103C89.8216 80.1479 89.6296 79.7695 89.4218 79.3819C89.2097 78.977 88.9915 78.5754 88.7673 78.177C88.2871 77.3739 87.7533 76.5296 87.1739 75.6417C86.8745 75.2104 86.5554 74.779 86.232 74.3292C85.9003 73.8895 85.5663 73.428 85.2089 72.9748C84.8416 72.5349 84.4699 72.0782 84.0792 71.6235C83.6851 71.1737 83.2973 70.6911 82.8642 70.2534C82.0115 69.3586 81.127 68.4159 80.1502 67.5404C79.6652 67.0969 79.1773 66.6371 78.6655 66.1971C78.4029 65.9781 78.1385 65.7571 77.8711 65.536C77.8519 64.1602 77.5064 62.8085 76.863 61.5922C76.863 61.5922 76.3372 60.5956 75.3471 58.8881C75.0948 58.4639 74.7995 58.003 74.4792 57.5009C74.1565 57.0002 73.8179 56.4524 73.4286 55.8841C72.6358 54.7566 71.7548 53.4753 70.6892 52.1511L69.8866 51.1296C69.6085 50.7864 69.3113 50.4474 69.0144 50.0989C68.4163 49.4052 67.8137 48.6762 67.1365 47.9745C66.47 47.2645 65.7984 46.5255 65.0609 45.8158L63.955 44.7322C63.5815 44.3689 63.1861 44.0198 62.7973 43.659C62.4038 43.3028 62.008 42.9437 61.6031 42.5885L60.3584 41.54C59.5371 40.8235 58.6409 40.1703 57.7662 39.4862C57.5149 39.2953 57.2618 39.1068 57.0069 38.9208L56.577 37.3805C56.5027 37.1022 56.4134 36.831 56.3471 36.5487L56.1481 35.7049C56.0171 35.1435 55.882 34.5852 55.7394 34.0305C55.6634 33.7551 55.6131 33.4718 55.5574 33.1912C55.5028 32.9111 55.4455 32.6315 55.3855 32.3525L55.0326 30.6939C54.9137 30.1446 54.8333 29.5899 54.733 29.0465C54.3002 26.8748 54.0022 24.7588 53.6556 22.7898C53.5893 22.2954 53.516 21.8096 53.4445 21.3336C53.3761 20.8667 53.3038 20.4004 53.2276 19.9348L53.1194 19.2584C53.0835 19.0354 53.0392 18.8152 53.0134 18.5974C52.9576 18.1731 52.8983 17.7493 52.8356 17.3259C52.7245 16.551 52.6049 15.7774 52.4769 15.0051L52.3894 14.4749C52.3594 14.3017 52.3278 14.1315 52.3056 13.9656L52.1641 13.0149C52.0212 12.071 51.8605 11.1298 51.682 10.192C51.5545 9.53472 51.4735 9.18024 51.4735 9.18024L51.4642 9.13909C51.4063 8.89108 51.2745 8.66648 51.0862 8.49503C50.8979 8.32357 50.662 8.21335 50.4097 8.17895C50.1574 8.14454 49.9005 8.18758 49.6732 8.30236C49.4459 8.41715 49.2588 8.59826 49.1367 8.82174C49.1367 8.82174 48.9625 9.141 48.6601 9.7468C48.2276 10.6214 47.8141 11.5052 47.4198 12.3976C46.888 13.5445 46.3603 14.968 45.7645 16.6156C45.6107 17.0406 45.4606 17.467 45.3143 17.8946C45.1623 18.3352 45.0325 18.795 44.8911 19.2656C44.7455 19.7488 44.6043 20.2334 44.4675 20.7192C44.3253 21.2168 44.1798 21.7273 44.0399 22.2506C43.5371 24.3584 43.0027 26.66 42.6664 29.1648C42.5942 29.6988 42.5075 30.238 42.4405 30.7881C41.7239 30.5044 41.0023 30.2464 40.2971 29.9869C39.2928 29.6513 38.3186 29.312 37.3325 29.0469C36.8415 28.9106 36.367 28.7603 35.8808 28.6438L34.4493 28.2983C33.4969 28.0942 32.5827 27.8902 31.6712 27.7568C31.2174 27.6864 30.7798 27.605 30.3387 27.5499L29.0432 27.3987C28.6229 27.3487 28.1995 27.3206 27.793 27.2898C27.3853 27.2601 26.9889 27.232 26.5938 27.2228C26.2016 27.2088 25.8211 27.1952 25.4517 27.1893L24.3618 27.204C24.1861 27.208 24.0156 27.2073 23.8446 27.2155L23.3374 27.248L22.3842 27.3143L21.4955 27.4203C21.2151 27.4538 20.9475 27.4871 20.6864 27.5378C20.1654 27.6349 19.7346 27.7036 19.2748 27.818L18.6761 27.9627C18.588 27.9853 18.4937 28.0066 18.424 28.0301L18.2406 28.0992C17.7784 28.2728 17.5326 28.3731 17.5326 28.3731C16.8036 28.6769 16.2215 29.3357 16.0632 30.1697C15.813 31.4879 16.679 32.7592 17.997 33.0094L18.0042 33.0107C18.0042 33.0107 18.2653 33.0603 18.7532 33.1388L18.9469 33.1701C19.0097 33.1832 19.0558 33.2046 19.1142 33.2212L19.4748 33.3361L20.4416 33.6399C20.5356 33.6712 20.6296 33.6954 20.7295 33.73L21.0373 33.8391L21.6884 34.0686L22.3982 34.3438L22.7693 34.4882L23.1556 34.6507C24.1964 35.067 25.3648 35.6345 26.6141 36.2499C27.2386 36.5751 27.8841 36.9066 28.5467 37.2756L29.0465 37.5484L29.5499 37.8431C29.8885 38.0388 30.2326 38.2281 30.5772 38.434C31.2628 38.8605 31.9687 39.2737 32.6757 39.7348C33.0302 39.9605 33.3881 40.185 33.7421 40.4319L34.8216 41.1464L35.8979 41.9086C36.2629 42.1536 36.6214 42.4197 36.9818 42.6848C37.7082 43.2029 38.4185 43.7677 39.1412 44.3159C40.4365 45.3468 41.7417 46.3873 42.9874 47.5028C43.0446 47.798 43.102 48.0929 43.1617 48.3887C43.2291 48.7761 43.3436 49.1631 43.4397 49.5516C43.5387 49.9412 43.6413 50.3299 43.7476 50.7175L43.9702 51.5247C43.3704 51.4531 42.7665 51.4096 42.1722 51.3526L41.0844 51.2565C40.7251 51.218 40.358 51.2186 39.9982 51.1987C39.2756 51.1704 38.5617 51.1353 37.8544 51.1166C37.1433 51.1129 36.4372 51.124 35.7426 51.1292L34.7062 51.1514L33.6772 51.2096C32.996 51.2513 32.3245 51.304 31.6649 51.3511C31.0013 51.4177 30.3477 51.5078 29.7072 51.585C29.3868 51.6261 29.0696 51.6625 28.7553 51.7076C28.4407 51.7543 28.1272 51.8166 27.818 51.8698C27.2116 51.9764 26.6062 52.0896 26.0022 52.2091C25.4103 52.323 24.8288 52.4804 24.2646 52.6193C23.6993 52.7657 23.1496 52.8884 22.6145 53.0565C22.0791 53.2238 21.5587 53.3853 21.0553 53.5534C20.5519 53.7203 20.0634 53.8703 19.5937 54.0685C19.1236 54.2549 18.6692 54.4319 18.2336 54.6143L17.5918 54.8798C17.3816 54.9635 17.1785 55.0726 16.9785 55.1667C16.579 55.3614 16.1958 55.5455 15.8318 55.7312L15.2981 56.0011C15.1236 56.0901 14.9586 56.1714 14.7863 56.2736C14.4472 56.4683 14.1265 56.6521 13.827 56.8327C13.5441 56.9996 13.2635 57.1704 12.9854 57.3451C12.7256 57.5088 12.4736 57.6589 12.2869 57.8091C11.8881 58.0999 11.5571 58.3707 11.2845 58.5782C10.7434 59.0046 10.46 59.2466 10.46 59.2466C10.0358 59.6118 9.7554 60.109 9.73933 60.7127C9.70947 61.8501 10.606 62.7813 11.7418 62.7813H11.743C11.743 62.7813 12.1156 62.835 12.8047 62.8262C13.1471 62.8161 13.5749 62.8404 14.068 62.8157C14.3233 62.7958 14.5633 62.8278 14.8244 62.8398C15.0855 62.855 15.3579 62.8695 15.6431 62.8798C15.9244 62.8885 16.2211 62.9001 16.532 62.9095C16.8407 62.9204 17.1933 62.9493 17.5405 62.9677C18.2458 63.0171 18.9831 63.0205 19.7883 63.1105C20.5898 63.1888 21.4187 63.2251 22.3063 63.3478C22.7477 63.4028 23.1963 63.4487 23.653 63.4971C23.88 63.5151 24.1151 63.562 24.3492 63.5932L25.0583 63.6945L25.778 63.7965C26.0198 63.8292 26.2613 63.8529 26.5096 63.9021C27.0038 63.9909 27.5043 64.078 28.0106 64.1577C28.264 64.2007 28.5176 64.2354 28.7751 64.2859C29.0329 64.3414 29.2922 64.3885 29.5527 64.44C30.0741 64.5395 30.6003 64.6471 31.1324 64.7413C31.6668 64.8597 32.2058 64.9847 32.7498 65.0996L33.5694 65.2715L34.3974 65.4795C34.9521 65.6131 35.5108 65.7381 36.0732 65.8782C36.6357 66.035 37.2036 66.1774 37.7736 66.3278C38.3437 66.47 38.9179 66.6377 39.4944 66.8035L40.3613 67.051C40.6509 67.1327 40.9428 67.2058 41.2327 67.3017C41.8144 67.4801 42.3967 67.6671 42.9841 67.838C43.2783 67.9194 43.5711 68.0164 43.864 68.1156L44.7445 68.4076C45.9279 68.7598 47.0969 69.219 48.2857 69.6011C48.8742 69.8183 49.4596 70.0478 50.0524 70.2543C50.3473 70.3627 50.6455 70.4591 50.9378 70.5765L51.8156 70.9243C52.4001 71.1576 52.9958 71.358 53.5746 71.6047L54.4447 71.9672L55.3187 72.3156C55.6116 72.4274 55.8985 72.5527 56.1844 72.6796L57.0433 73.0546C57.6173 73.2987 58.1944 73.532 58.7564 73.7927C59.3203 74.0442 59.8867 74.2901 60.4555 74.5304C61.0159 74.7821 61.5696 75.0408 62.1284 75.2837C62.4058 75.4077 62.6848 75.5284 62.9652 75.6457L63.7854 76.0262C64.3278 76.284 64.8798 76.5183 65.4232 76.76C65.9538 77.0217 66.4919 77.2633 67.0236 77.5075C67.2904 77.6279 67.5528 77.7538 67.8212 77.8677L68.6008 78.2404C69.1162 78.4915 69.6376 78.7246 70.1529 78.9585C70.6527 79.2044 71.1546 79.4459 71.6587 79.683C72.6691 80.1414 73.6183 80.6339 74.5746 81.0782C75.0538 81.3 75.5115 81.5326 75.9663 81.76C76.4209 81.987 76.8787 82.1994 77.3239 82.4148L78.618 83.0665L79.88 83.6796C80.6852 84.0972 81.4646 84.4911 82.2187 84.8519C82.9083 85.2174 83.6034 85.5722 84.3039 85.9162C84.6362 86.0773 84.9472 86.2391 85.2432 86.3979L86.1077 86.8422C87.2345 87.3875 88.1009 87.8597 88.7329 88.1589C89.0435 88.3126 89.2914 88.4253 89.4591 88.5015C89.6254 88.5786 89.7159 88.6156 89.7159 88.6156L89.8116 88.6548C90.1369 88.7881 90.4944 88.8219 90.8389 88.7518C91.0688 88.7056 91.2872 88.6145 91.4818 88.4837C91.6765 88.353 91.8434 88.1853 91.9732 87.99C92.103 87.7948 92.1931 87.5759 92.2382 87.3458C92.2834 87.1158 92.2829 86.8791 92.2366 86.6492V86.6492Z" fill="#00B89C"></path><path d="M95.5958 88.4356C95.5958 88.4356 95.4015 88.0601 95.0164 87.3739C94.4586 86.3883 93.8819 85.4136 93.2866 84.4502C92.8575 83.77 92.4207 83.0948 91.9763 82.4245C91.4933 81.6916 90.9658 80.903 90.375 80.0817C90.074 79.655 89.7697 79.2306 89.462 78.8087C89.1467 78.3725 88.823 77.9234 88.4791 77.4719C88.1276 77.0077 87.7723 76.5464 87.4131 76.088C87.0397 75.6054 86.6625 75.1256 86.2817 74.6486C85.4985 73.6773 84.658 72.6846 83.7856 71.6573C82.9028 70.6383 81.9604 69.6082 80.9939 68.5443C80.5935 68.1288 80.1889 67.706 79.7799 67.2808L79.5084 66.7539C79.3691 66.4804 79.2234 66.2103 79.0787 65.9385C78.9382 65.6646 78.7769 65.4001 78.6563 65.1149C78.4012 64.551 78.1322 63.9927 77.8633 63.4311C77.5791 62.8762 77.3618 62.2899 77.1122 61.717L76.7445 60.853L76.5594 60.4207L76.3971 59.9791L75.7372 58.2135C74.916 55.8351 74.2249 53.4016 73.6928 50.9294C73.5812 50.3054 73.459 49.6845 73.3392 49.0639C73.2713 48.7558 73.2324 48.4402 73.1905 48.1259L73.0485 47.1864C73.0043 46.8729 72.9438 46.5634 72.9114 46.2476L72.8167 45.3007C72.7451 44.6712 72.655 44.0468 72.6272 43.411C72.5857 42.7776 72.5076 42.1517 72.4767 41.5193C72.454 40.8857 72.408 40.2549 72.3726 39.6265C72.3391 38.3617 72.2735 37.1083 72.2781 35.8535C72.2438 34.6045 72.285 33.356 72.2762 32.1274C72.3003 31.5114 72.3068 30.8983 72.3162 30.291L72.3231 29.8366L72.3403 29.3826L72.3699 28.4801C72.3914 27.2838 72.4641 26.1042 72.4921 24.955L72.5702 23.2509C72.5845 22.9714 72.5904 22.6922 72.5993 22.416C72.6077 22.1396 72.6272 21.8655 72.6406 21.5939L72.7727 18.443L72.8714 15.5499L72.903 14.2154C72.9176 13.7847 72.9237 13.3665 72.93 12.9642L72.9442 10.7354C72.9401 10.0567 72.9319 9.4484 72.9141 8.91304C72.8996 8.37863 72.8892 7.92366 72.8663 7.54965C72.8504 7.17794 72.8287 6.88949 72.8142 6.69502C72.8078 6.59623 72.7995 6.49757 72.7893 6.39911L72.7874 6.38188C72.7519 6.07523 72.6293 5.78517 72.4341 5.54603C72.2389 5.30688 71.9793 5.12868 71.686 5.0325C71.3926 4.93632 71.0779 4.9262 70.779 5.00333C70.4801 5.08046 70.2095 5.24162 69.9994 5.46772C69.9994 5.46772 69.9293 5.54314 69.8028 5.69243C69.6749 5.84135 69.4853 6.06242 69.2502 6.35546C68.7727 6.93887 68.0972 7.80384 67.2994 8.9383L66.6764 9.83676C66.4677 10.1556 66.2428 10.4881 66.021 10.8392C65.5699 11.5389 65.0908 12.3005 64.614 13.1351C64.369 13.5497 64.1286 13.982 63.8765 14.4271C63.6265 14.8736 63.3909 15.3424 63.1369 15.8203C62.8906 16.3013 62.6354 16.7923 62.3877 17.3052L61.652 18.8891C61.3989 19.443 61.1582 20.0023 60.93 20.5668C60.7001 21.1441 60.4488 21.7283 60.2243 22.3343C59.7856 23.5537 59.3206 24.8128 58.9372 26.1509C58.5202 27.475 58.1789 28.874 57.842 30.309C57.6856 31.0415 57.5408 31.7764 57.4077 32.5134C57.2603 33.2553 57.1503 34.0192 57.0513 34.79C56.9512 35.561 56.8304 36.3364 56.7828 37.1326L56.6873 38.3274C56.6582 38.7282 56.6163 39.1271 56.6115 39.534C56.5931 40.346 56.5644 41.1644 56.5588 41.9871L56.5562 42.2958L56.5657 42.6065L56.586 43.2291C56.6013 43.6447 56.6107 44.0617 56.6321 44.479C56.6576 45.313 56.7504 46.1536 56.8289 46.9962L56.9652 48.26C57.0129 48.6817 57.0904 49.1032 57.1526 49.5252C57.1648 49.5997 57.1761 49.6741 57.188 49.7488C56.7535 49.5061 56.3162 49.2686 55.8761 49.0362L53.5162 47.8455C53.1248 47.6468 52.7198 47.4684 52.3178 47.2864L51.1129 46.7426C50.71 46.5644 50.3148 46.3758 49.9073 46.208L48.6825 45.7161C45.4201 44.4193 42.0835 43.3834 38.7737 42.7094C37.9526 42.524 37.1263 42.3785 36.3077 42.2482C35.489 42.1172 34.684 41.9704 33.8722 41.8973L32.6688 41.7649C32.2701 41.7227 31.8758 41.6732 31.4792 41.6523C30.6866 41.6071 29.9074 41.5545 29.1372 41.5266C26.055 41.4418 23.1517 41.5689 20.5138 41.9385C17.8743 42.2694 15.5028 42.8052 13.4423 43.3778C12.9259 43.5141 12.4322 43.6736 11.9568 43.8294C11.4992 43.9767 11.0433 44.129 10.5892 44.2864L9.94968 44.5085L9.33106 44.747C8.92815 44.901 8.54744 45.0616 8.1874 45.2065C6.72008 45.7894 5.73109 46.3532 5.01159 46.7389C4.73975 46.8861 4.47059 47.0382 4.20424 47.1951C4.02183 47.2999 3.92823 47.3599 3.92823 47.3599C3.4349 47.6759 3.06367 48.1502 2.8755 48.7051C2.41631 50.0573 3.14021 51.5258 4.4925 51.985C4.4925 51.985 4.59758 52.0208 4.80009 52.0786C5.00279 52.1389 5.3031 52.226 5.69338 52.327C6.46436 52.5385 7.65568 52.792 8.98193 53.1568C9.31938 53.2393 9.67367 53.3336 10.0416 53.4186L10.6058 53.5545L11.2047 53.7071C12.0178 53.9226 12.8901 54.1029 13.8096 54.3404C15.6486 54.8079 17.6833 55.2894 19.8398 55.8801C22.002 56.4308 24.2791 57.1162 26.6401 57.8244C27.2272 58.0214 27.8236 58.1967 28.4238 58.3822L30.2311 58.9841L30.6874 59.1348C30.8407 59.1813 30.9938 59.2293 31.1456 59.2864L32.0625 59.6133C32.674 59.8392 33.3005 60.0208 33.916 60.2717C36.4024 61.1627 38.9336 62.1783 41.5034 63.2669C42.1467 63.5354 42.7952 63.7995 43.4387 64.0962L44.4082 64.5286C44.7318 64.6727 45.057 64.8129 45.3771 64.9748L47.321 65.8905C47.645 66.0461 47.9637 66.2189 48.2874 66.3787L49.2597 66.8601C49.9126 67.1685 50.5473 67.5325 51.1949 67.8648L52.1653 68.3671C52.4897 68.5313 52.8063 68.7196 53.1269 68.8944C53.7645 69.2542 54.4147 69.5879 55.0528 69.9458C55.6855 70.3148 56.322 70.6772 56.9621 71.033C59.4931 72.506 62.0076 73.9804 64.4327 75.4927C65.0387 75.8696 65.6481 76.2302 66.2438 76.6104C66.8421 76.985 67.4303 77.3628 68.0243 77.723L71.4851 79.9033L73.1543 80.9704C73.7029 81.3224 74.2557 81.6532 74.787 81.999C75.8533 82.6873 76.8957 83.3414 77.9024 83.9707C78.3998 84.2932 78.8935 84.6027 79.3766 84.9057C79.7158 85.1201 80.0564 85.3324 80.3983 85.5425L80.828 85.8421C81.0598 85.9987 81.2998 86.1388 81.5306 86.2844C82.5065 86.892 83.4903 87.4868 84.4818 88.0685L84.6044 88.1349L85.7933 88.8565C86.4656 89.2621 87.1422 89.6604 87.8231 90.0513C89.0556 90.7712 90.0394 91.3276 90.7218 91.6962C91.4042 92.0651 91.7791 92.2521 91.7791 92.2521L91.8306 92.2779C92.2281 92.4738 92.666 92.5734 93.1091 92.5689C93.5522 92.5644 93.9881 92.4558 94.3815 92.2519C95.7711 91.533 96.3143 89.8245 95.5958 88.4356V88.4356Z" fill="#009E83"></path><path d="M79.2156 57.3088C78.4297 57.5381 77.6126 57.6421 76.7943 57.6169C76.3747 57.6039 76.1768 58.1259 76.4934 58.4013C77.0485 58.8848 77.5324 59.4445 77.9305 60.0637C77.9753 60.1305 78.0183 60.1978 78.0591 60.2654C80.2854 63.9617 77.3582 65.8815 73.6619 68.1077C69.9657 70.334 66.8999 72.0235 64.6737 68.3273C64.6287 68.2524 64.585 68.1768 64.5426 68.1004C64.3808 67.8091 63.968 67.8036 63.7812 68.0796L63.7766 68.0863C63.7325 68.1538 63.6876 68.2197 63.6412 68.2838C61.1126 71.7802 58.1996 69.8392 54.7031 67.3107C51.2067 64.782 48.451 62.6233 50.9797 59.1271C51.2616 58.7372 51.579 58.3741 51.9278 58.0426C52.2007 57.7833 52.0497 57.3235 51.6761 57.2774C51.2776 57.2282 50.8836 57.1484 50.4974 57.0387C50.4202 57.0185 50.3436 56.9963 50.2675 56.9723C46.1534 55.6711 47.08 52.2954 48.3812 48.1814C49.6824 44.0673 50.8651 40.7726 54.9792 42.0738C55.5059 42.24 56.0134 42.4618 56.4932 42.7355C56.8278 42.9263 57.2263 42.6262 57.1461 42.2493C57.0484 41.7898 56.9923 41.3224 56.9784 40.8528C56.9744 40.7724 56.9723 40.6926 56.9723 40.6135C56.9723 36.2987 60.4702 36.1643 64.7851 36.1643C69.1 36.1643 72.5979 36.2987 72.5979 40.6135C72.5979 41.3045 72.5079 41.9742 72.3393 42.6122C72.2362 43.0027 72.6525 43.3235 72.9985 43.1154C73.51 42.8083 74.0549 42.5606 74.6226 42.3772C74.6988 42.3509 74.7748 42.3266 74.8508 42.3044C78.9939 41.0991 80.0999 44.4204 81.3052 48.5636C82.5108 52.7074 83.3588 56.1035 79.2156 57.3088V57.3088ZM58.1469 19.9118C57.1231 16.3924 56.1837 13.5711 52.6641 14.5949C52.5996 14.6137 52.5351 14.6343 52.4704 14.6566C51.9882 14.8124 51.5253 15.0228 51.0907 15.2836C50.7965 15.4605 50.443 15.1879 50.5307 14.8562C50.6768 14.3021 50.7506 13.7314 50.7502 13.1584C50.7502 9.49298 47.7788 9.37891 44.1136 9.37891C40.4482 9.37891 37.477 9.49298 37.477 13.1584C37.477 13.2256 37.4787 13.2934 37.4821 13.3617C37.494 13.7605 37.5416 14.1575 37.6245 14.5478C37.6927 14.8679 37.3541 15.1228 37.0698 14.9607C36.6623 14.7284 36.2312 14.54 35.7838 14.3987C32.2891 13.2935 31.2842 16.0921 30.179 19.5868C29.0738 23.0815 28.2866 25.9489 31.7813 27.0543C31.8452 27.0746 31.9103 27.0932 31.9765 27.1106C32.3096 27.205 32.644 27.2721 32.9778 27.3133C33.2951 27.3525 33.4234 27.7432 33.1916 27.9633C32.8952 28.2449 32.6256 28.5533 32.3861 28.8845C30.2382 31.8546 32.5791 33.6883 35.5491 35.8362C38.5192 37.9842 40.9937 39.633 43.1416 36.6629C43.1828 36.6061 43.2224 36.5482 43.2605 36.4893C43.4192 36.2548 43.7698 36.2594 43.9073 36.5071C43.9431 36.5718 43.9802 36.6359 44.0187 36.6999C45.9098 39.8397 48.514 38.4045 51.6539 36.5134C54.7937 34.6223 57.2802 32.9915 55.3891 29.8517C55.3545 29.7943 55.3179 29.7371 55.2799 29.6802C54.9416 29.1542 54.5306 28.6788 54.0591 28.268C53.7901 28.0339 53.9584 27.5906 54.3148 27.6017C54.9926 27.6228 55.6851 27.5395 56.3714 27.3399C59.891 26.3163 59.1706 23.4312 58.1469 19.9118Z" fill="#FF929D"></path><path d="M73.5714 51.567L73.5593 51.6077C73.5517 51.6357 73.5392 51.6743 73.5218 51.7208L73.4587 51.8968C73.4319 51.9605 73.4024 52.0374 73.366 52.115C73.33 52.193 73.2904 52.2803 73.2441 52.3663C73.1993 52.4568 73.1478 52.5458 73.0923 52.6402C72.9748 52.841 72.8433 53.0332 72.6986 53.2154C72.3958 53.5978 72.0124 53.962 71.5649 54.2512C71.3413 54.3967 71.1007 54.5204 70.8502 54.6296C70.5978 54.7413 70.3414 54.8436 70.0815 54.9363C69.8684 55.0113 69.6529 55.0794 69.4353 55.1403C69.5559 55.3302 69.6734 55.5235 69.7821 55.7224C69.9146 55.9645 70.0381 56.2114 70.1523 56.4626C70.2668 56.7108 70.3642 56.9633 70.4344 57.2205C70.5765 57.7343 70.6203 58.2612 70.5922 58.7481C70.579 58.9804 70.5495 59.2114 70.5037 59.4395C70.4825 59.5467 70.4616 59.6476 70.435 59.745C70.4126 59.8399 70.3839 59.9314 70.359 60.0137C70.3345 60.0956 70.3054 60.1728 70.283 60.2382L70.2132 60.4115C70.1992 60.4487 70.1834 60.4852 70.1659 60.5209L70.1479 60.5596C69.7216 61.469 68.7554 61.9532 67.8106 61.8137L67.7685 61.8074C67.7291 61.802 67.69 61.7949 67.6512 61.7861L67.4682 61.7486C67.4012 61.731 67.321 61.7126 67.2393 61.6878C67.157 61.6631 67.0649 61.6363 66.9732 61.6026C66.8773 61.571 66.7818 61.5325 66.6808 61.491C66.4654 61.403 66.2566 61.2999 66.0558 61.1824C65.6345 60.9367 65.2198 60.6086 64.8703 60.2063C64.6945 60.0057 64.5382 59.7848 64.3946 59.552C64.354 59.4873 64.3156 59.4206 64.2763 59.3543C64.2264 59.4127 64.1774 59.4722 64.1263 59.5291C63.9454 59.7341 63.754 59.9253 63.5469 60.0935C63.1344 60.431 62.6702 60.6842 62.2135 60.8553C61.9959 60.9373 61.7726 61.0036 61.5455 61.0538C61.4387 61.0777 61.3382 61.0996 61.2383 61.1143C61.1424 61.1321 61.0471 61.143 60.9617 61.1533C60.8769 61.1641 60.7946 61.1687 60.7257 61.1746L60.5389 61.1807C60.4892 61.1832 60.4488 61.1832 60.4197 61.1819L60.377 61.1809C59.3731 61.1587 58.5393 60.4706 58.2851 59.5499L58.2738 59.5088C58.2627 59.4706 58.2534 59.432 58.2459 59.393L58.2063 59.2104C58.1953 59.1421 58.1796 59.0613 58.1693 58.9763C58.1586 58.8911 58.146 58.796 58.1398 58.6986C58.1307 58.5946 58.1252 58.4903 58.1236 58.386C58.117 58.1535 58.1269 57.9208 58.1532 57.6897C58.2078 57.205 58.3402 56.693 58.5669 56.2107C58.6794 55.9689 58.8182 55.7366 58.973 55.5113C59.0157 55.4479 59.0615 55.3857 59.1059 55.3231C59.0322 55.3011 58.9579 55.2802 58.8854 55.2565C58.6247 55.174 58.3724 55.0762 58.1351 54.9548C57.6596 54.7141 57.2404 54.3917 56.8993 54.0432C56.7365 53.8771 56.5855 53.6997 56.4476 53.5124C56.3827 53.4244 56.322 53.3413 56.2681 53.2559C56.2129 53.1753 56.1645 53.0927 56.1205 53.0188C56.0765 52.9455 56.039 52.8722 56.0057 52.8115L55.9245 52.6432C55.9064 52.6078 55.89 52.5716 55.8753 52.5347L55.859 52.4953C55.4735 51.5679 55.7658 50.5274 56.5052 49.9228L56.5381 49.8958C56.5602 49.8768 56.5921 49.852 56.6329 49.8232L56.7839 49.7132C56.8419 49.6755 56.9095 49.6286 56.9832 49.5848C57.0569 49.5405 57.1386 49.4904 57.2253 49.4454C57.3132 49.3956 57.4058 49.351 57.5048 49.3042C57.7148 49.2042 57.9316 49.1192 58.1536 49.0498C58.6191 48.9037 59.1407 48.8178 59.6736 48.8302C59.9402 48.8354 60.2087 48.8685 60.4775 48.919C60.7343 48.965 60.9922 49.0236 61.2487 49.0886L61.2464 49.0559C61.2336 48.7802 61.2312 48.5041 61.2389 48.2283C61.245 47.9549 61.2684 47.6854 61.3183 47.4234C61.4163 46.8995 61.6083 46.4068 61.8474 45.9817C61.9611 45.7788 62.0891 45.5843 62.2304 45.3995C62.2966 45.3124 62.3596 45.231 62.4264 45.1552C62.4882 45.0798 62.5542 45.0101 62.6126 44.9472C62.6706 44.8844 62.7305 44.8279 62.7793 44.7789L62.9181 44.6539C62.9471 44.6267 62.9773 44.6008 63.0086 44.5762L63.0417 44.5494C63.824 43.9197 64.9049 43.9088 65.6923 44.4491L65.7274 44.4733C65.7517 44.4891 65.7846 44.5129 65.8235 44.5439L65.9714 44.658C66.0239 44.7031 66.0878 44.7548 66.1504 44.8132C66.2135 44.8716 66.2846 44.9361 66.3519 45.0065C66.4243 45.0769 66.4932 45.1535 66.5657 45.2352C66.712 45.3987 66.8567 45.584 66.9916 45.7869C67.2623 46.1927 67.4908 46.6696 67.628 47.1845C67.6977 47.442 67.7412 47.709 67.768 47.9812C67.7945 48.2383 67.812 48.4963 67.8204 48.7546C68.0785 48.6578 68.3401 48.5705 68.6046 48.493C68.8664 48.4147 69.1302 48.3538 69.3947 48.3207C69.9234 48.2528 70.4511 48.2836 70.9292 48.3802C71.1683 48.4283 71.3943 48.492 71.6011 48.5653C71.7042 48.6015 71.8011 48.6363 71.8937 48.6765C71.9846 48.7121 72.0711 48.7535 72.149 48.7897C72.2268 48.8254 72.2989 48.8651 72.3606 48.8965L72.5223 48.9901C72.5657 49.0144 72.6002 49.0358 72.6239 49.0523L72.6595 49.0756C73.5 49.6265 73.8432 50.6515 73.5714 51.567V51.567ZM50.8027 20.3467L50.7724 20.3268C50.7444 20.3079 50.7155 20.2903 50.6859 20.274L50.5487 20.1945C50.4962 20.1679 50.435 20.1342 50.3689 20.1038C50.3027 20.073 50.2292 20.0379 50.1521 20.0077C50.0704 19.9732 49.9874 19.9417 49.9034 19.9132C49.7171 19.8473 49.5264 19.7947 49.3327 19.7558C48.9038 19.6684 48.4635 19.6513 48.0292 19.7053C47.8018 19.7354 47.5773 19.7843 47.3579 19.8515C47.1332 19.9174 46.911 19.9915 46.6918 20.0737C46.6846 19.8543 46.6698 19.6351 46.6472 19.4166C46.6264 19.1882 46.5866 18.9619 46.5284 18.74C46.4118 18.3027 46.2175 17.8976 45.9878 17.5527C45.8786 17.3881 45.7577 17.2315 45.6261 17.0842C45.5679 17.0172 45.5073 16.9524 45.4444 16.8899C45.3872 16.83 45.3269 16.775 45.2733 16.7257C45.2201 16.6761 45.1657 16.6323 45.1211 16.5938L44.9956 16.4967C44.9693 16.4755 44.9421 16.4556 44.914 16.4368C44.9041 16.43 44.8942 16.4231 44.8842 16.4164C44.2152 15.9574 43.297 15.9665 42.6327 16.5015L42.6045 16.5243C42.585 16.5392 42.5586 16.5614 42.5276 16.5903L42.4097 16.6966C42.3682 16.7381 42.3172 16.7861 42.268 16.8395C42.2183 16.893 42.1624 16.9521 42.1098 17.0162C42.0531 17.0805 41.9995 17.1496 41.9432 17.2237C41.8233 17.3807 41.7145 17.546 41.6178 17.7183C41.4148 18.0795 41.2517 18.4979 41.1684 18.9429C41.1271 19.1686 41.1045 19.3972 41.1009 19.6266C41.0944 19.861 41.0965 20.0955 41.1072 20.3297C41.1076 20.339 41.1087 20.3482 41.1091 20.3574C40.8925 20.3016 40.6741 20.2535 40.4541 20.2133C40.2289 20.1693 40.0005 20.144 39.7712 20.1379C39.3335 20.1296 38.8975 20.1926 38.4801 20.3243C38.2915 20.3832 38.1073 20.4554 37.9289 20.5404C37.8448 20.5802 37.7662 20.6181 37.6915 20.6604C37.6178 20.6987 37.5484 20.7412 37.486 20.7787C37.4236 20.8158 37.3661 20.8558 37.3167 20.8878L37.1885 20.9812C37.1608 21.0005 37.1339 21.021 37.1081 21.0428L37.0802 21.0658C36.4522 21.5793 36.2037 22.4634 36.5312 23.2511L36.5452 23.2846C36.5542 23.3076 36.568 23.3389 36.5869 23.3768L36.6558 23.5198C36.6842 23.5713 36.7159 23.6337 36.7534 23.6959C36.7908 23.7587 36.8319 23.8289 36.8788 23.8973C36.9246 23.9696 36.976 24.0404 37.0314 24.1151C37.1484 24.2743 37.2767 24.425 37.4151 24.566C37.7208 24.8793 38.0753 25.1409 38.4648 25.3405C38.6665 25.4436 38.8809 25.5267 39.1022 25.5968C39.1638 25.6169 39.227 25.6347 39.2896 25.6534C39.2517 25.7066 39.213 25.7595 39.1766 25.8132C39.0451 26.0047 38.9272 26.202 38.8317 26.4074C38.6473 26.8043 38.5286 27.2286 38.4803 27.6636C38.4579 27.8599 38.4494 28.0575 38.455 28.255C38.4575 28.3478 38.4604 28.4353 38.4688 28.5207C38.474 28.6034 38.4847 28.6842 38.4939 28.7567C38.5027 28.8289 38.5159 28.8976 38.5253 28.9556L38.559 29.1106C38.5672 29.1521 38.5756 29.1854 38.5827 29.209L38.5923 29.2438C38.8082 30.0259 39.5164 30.6103 40.3691 30.6292L40.4053 30.63C40.43 30.6311 40.4642 30.6311 40.5065 30.629L40.6652 30.6239C40.7238 30.6187 40.7936 30.6149 40.8656 30.6059C40.9382 30.5971 41.0189 30.5879 41.1005 30.5728C41.1853 30.5601 41.2706 30.5416 41.3614 30.5213C41.5543 30.4786 41.7439 30.4222 41.9289 30.3526C42.3391 30.1998 42.7216 29.9812 43.0616 29.7055C43.2375 29.5627 43.4 29.4002 43.5537 29.226C43.597 29.1778 43.6389 29.1273 43.6812 29.0775C43.7145 29.1336 43.7472 29.1904 43.7817 29.2454C43.9036 29.4429 44.0364 29.6307 44.1857 29.801C44.4826 30.1429 44.8348 30.4214 45.1927 30.6302C45.3632 30.73 45.5406 30.8176 45.7235 30.8924C45.8094 30.9278 45.8906 30.9604 45.9719 30.9872C46.0497 31.0159 46.1279 31.0386 46.1978 31.0595C46.2673 31.0807 46.3354 31.0963 46.3923 31.1112L46.5477 31.1431C46.589 31.1523 46.6229 31.1581 46.6474 31.1611L46.6832 31.1665C47.4858 31.2852 48.3067 30.8736 48.6687 30.1013L48.684 30.0686C48.6949 30.0466 48.7089 30.015 48.724 29.9756L48.7833 29.8284C48.8023 29.7729 48.827 29.7074 48.8478 29.6377C48.8691 29.5679 48.8934 29.4902 48.9123 29.4094C48.9351 29.3267 48.9527 29.2411 48.9707 29.15C49.0077 28.9674 49.0341 28.7695 49.0457 28.5628C49.0697 28.1492 49.0323 27.7015 48.9118 27.2653C48.8498 27.0444 48.7697 26.829 48.6721 26.6214C48.5751 26.408 48.4702 26.1982 48.3576 25.9926C48.2648 25.8246 48.1666 25.6598 48.0631 25.4982C48.2479 25.4465 48.431 25.3887 48.612 25.325C48.8328 25.2462 49.0507 25.1593 49.2651 25.0645C49.476 24.9742 49.6791 24.8667 49.8722 24.7429C50.2526 24.4973 50.5781 24.1878 50.8354 23.863C50.9583 23.7083 51.07 23.5451 51.1698 23.3745C51.2169 23.2945 51.2607 23.2187 51.2986 23.142C51.338 23.0691 51.3715 22.9948 51.4021 22.9286C51.433 22.8627 51.458 22.7975 51.4808 22.7433L51.5344 22.594C51.5465 22.5625 51.5572 22.5304 51.5664 22.4979L51.5767 22.4633C51.8077 21.6848 51.5162 20.8141 50.8027 20.3467V20.3467Z" fill="#FF473E"></path><path d="M67.9199 53.2747C67.9199 55.0038 66.5183 56.4055 64.7891 56.4055C63.0599 56.4055 61.6583 55.0038 61.6583 53.2747C61.6583 51.5455 63.0599 50.1438 64.7891 50.1438C66.5183 50.1438 67.9199 51.5457 67.9199 53.2747V53.2747ZM44.1168 21.2538C42.648 21.2538 41.4574 22.4445 41.4574 23.9132C41.4574 25.3818 42.6482 26.5726 44.1168 26.5726C45.5857 26.5726 46.7762 25.3818 46.7762 23.9132C46.7762 22.4445 45.5855 21.2538 44.1168 21.2538V21.2538ZM44.5661 54.6327C43.3608 50.4895 42.2548 47.1682 38.1117 48.3735C38.0359 48.3955 37.9597 48.4198 37.8835 48.4463C37.3158 48.6297 36.7709 48.8774 36.2594 49.1845C35.9132 49.3926 35.4969 49.072 35.6 48.6813C35.7722 48.0291 35.8591 47.3572 35.8586 46.6826C35.8586 42.3678 32.3607 42.2334 28.0458 42.2334C23.7309 42.2334 20.233 42.3678 20.233 46.6826C20.233 46.7617 20.2351 46.8413 20.2391 46.9219C20.2535 47.3995 20.3105 47.8661 20.4068 48.3184C20.487 48.6951 20.0885 48.9954 19.7539 48.8046C19.274 48.5311 18.7665 48.3093 18.2399 48.1429C14.1258 46.8417 12.9429 50.1364 11.6419 54.2505C10.3407 58.3646 9.41412 61.7402 13.5282 63.0414C13.6034 63.0651 13.6802 63.0873 13.7581 63.1078C14.1501 63.2188 14.544 63.298 14.9368 63.3465C15.3104 63.3926 15.4614 63.8524 15.1885 64.1117C14.8396 64.4432 14.5223 64.8062 14.2404 65.1962C11.7118 68.6926 14.4674 70.8513 17.9639 73.3798C21.4603 75.9083 24.3735 77.8493 26.9019 74.3529C26.9483 74.2888 26.9932 74.2229 27.0373 74.1554L27.0419 74.1487C27.2287 73.8727 27.6415 73.8782 27.8033 74.1695C27.8456 74.2455 27.8892 74.3211 27.9344 74.3964C30.1606 78.0926 33.2264 76.4031 36.9226 74.1768C40.6189 71.9506 43.5461 70.0308 41.3198 66.3345C41.2786 66.2662 41.2357 66.199 41.1912 66.1328C40.7931 65.5136 40.3092 64.9539 39.7541 64.4704C39.4375 64.1948 39.6354 63.6728 40.055 63.686C40.853 63.7109 41.6682 63.6129 42.4763 63.3779C46.6193 62.172 45.7712 58.7759 44.5661 54.6327V54.6327Z" fill="#FFB636"></path><path d="M28.0458 63.6319C30.3619 63.6319 32.2395 61.7543 32.2395 59.4382C32.2395 57.122 30.3619 55.2444 28.0458 55.2444C25.7297 55.2444 23.8521 57.122 23.8521 59.4382C23.8521 61.7543 25.7297 63.6319 28.0458 63.6319Z" fill="#F8BBC6"></path><path d="M35.9204 55.1445L35.8848 55.1212C35.8519 55.0989 35.8179 55.0781 35.783 55.059L35.6213 54.9654C35.5596 54.934 35.4875 54.8944 35.4098 54.8586C35.3319 54.8222 35.2454 54.781 35.1544 54.7454C35.0618 54.7052 34.9649 54.6704 34.8618 54.6342C34.6425 54.5567 34.418 54.4948 34.1899 54.4491C33.7118 54.3525 33.1839 54.3217 32.6554 54.3896C32.3907 54.4227 32.1272 54.4836 31.8651 54.5619C31.6006 54.6394 31.339 54.7267 31.0809 54.8235C31.0726 54.5652 31.0551 54.3072 31.0285 54.0501C31.0017 53.7781 30.9582 53.5109 30.8886 53.2534C30.7513 52.7385 30.5228 52.2618 30.2521 51.8558C30.1234 51.6621 29.9811 51.4777 29.8263 51.3041C29.7578 51.2253 29.6865 51.149 29.6125 51.0754C29.5451 51.0048 29.4741 50.9403 29.4109 50.8821C29.3483 50.8237 29.2842 50.772 29.2319 50.7269L29.084 50.6128C29.0531 50.5878 29.021 50.5642 28.9879 50.5422C28.9762 50.5342 28.9645 50.5261 28.9529 50.518C28.1654 49.9777 27.0846 49.9884 26.3023 50.6183L26.2692 50.6451C26.2462 50.6627 26.2152 50.689 26.1786 50.7229L26.0399 50.8478C25.9911 50.8968 25.9311 50.9533 25.8732 51.0161C25.8146 51.0791 25.7487 51.1487 25.6869 51.2241C25.6201 51.2997 25.5571 51.3813 25.4909 51.4684C25.3497 51.6532 25.2217 51.8478 25.1079 52.0506C24.8688 52.4757 24.6769 52.9684 24.5789 53.4923C24.5289 53.7543 24.5056 54.0238 24.4994 54.2972C24.4917 54.573 24.4942 54.8491 24.5069 55.1248L24.5092 55.1575C24.2542 55.0918 23.997 55.0353 23.738 54.988C23.4693 54.9374 23.2007 54.9045 22.9341 54.8991C22.4012 54.8867 21.8797 54.9725 21.4142 55.1187C21.1816 55.1914 20.9632 55.2783 20.7653 55.3731C20.6665 55.42 20.5737 55.4646 20.4858 55.5143C20.3991 55.5593 20.3174 55.6093 20.2437 55.6537C20.1702 55.6973 20.1026 55.7444 20.0444 55.7821L19.8934 55.8922C19.8527 55.9209 19.8209 55.9458 19.7987 55.9647L19.7658 55.9917C19.0264 56.5963 18.7341 57.637 19.1196 58.5642L19.1358 58.6036C19.1464 58.6306 19.1626 58.6677 19.185 58.7121L19.2662 58.8804C19.2995 58.9411 19.337 59.0144 19.381 59.0877C19.4251 59.1616 19.4735 59.2443 19.5286 59.3248C19.5826 59.4102 19.6431 59.4933 19.7081 59.5813C19.8459 59.7687 19.9969 59.9461 20.1599 60.1121C20.501 60.4608 20.9203 60.783 21.3956 61.0238C21.6331 61.1451 21.8854 61.2429 22.1459 61.3254C22.2184 61.3492 22.2927 61.37 22.3664 61.392C22.3218 61.4546 22.2762 61.5168 22.2336 61.5802C22.0787 61.8055 21.9399 62.0378 21.8274 62.2796C21.6006 62.7619 21.4683 63.2737 21.4138 63.7586C21.3875 63.9897 21.3775 64.2224 21.3841 64.4549C21.387 64.5642 21.3904 64.6672 21.4004 64.7675C21.4065 64.8649 21.4191 64.96 21.4298 65.0452C21.4402 65.1302 21.4557 65.211 21.4668 65.2793L21.5064 65.4619C21.5162 65.5107 21.5261 65.5499 21.5344 65.5779L21.5456 65.619C21.7998 66.5397 22.6334 67.2278 23.6375 67.25L23.6802 67.251C23.7091 67.2523 23.7497 67.2523 23.7995 67.2498L23.9863 67.2437C24.0552 67.2378 24.1375 67.2332 24.2223 67.2225C24.3076 67.2121 24.4028 67.2012 24.4989 67.1834C24.6019 67.1669 24.7044 67.1467 24.8061 67.1229C25.0331 67.0726 25.2564 67.0063 25.4741 66.9244C25.931 66.7533 26.3951 66.5001 26.8074 66.1626C27.0145 65.9946 27.2059 65.8034 27.3866 65.5982C27.4377 65.5413 27.4867 65.4818 27.5367 65.4234C27.5759 65.4895 27.6144 65.5565 27.655 65.6211C27.7985 65.8537 27.9549 66.0746 28.1306 66.2754C28.4801 66.6777 28.8947 67.0058 29.3162 67.2515C29.5267 67.3746 29.7378 67.4774 29.9411 67.5601C30.0424 67.6016 30.1377 67.6401 30.2336 67.6717C30.3251 67.7056 30.4171 67.7324 30.4994 67.7569C30.5812 67.7817 30.6616 67.8001 30.7284 67.8177L30.9113 67.8552C30.96 67.866 31 67.8728 31.0287 67.8765L31.0708 67.8828C32.0156 68.0225 32.982 67.5381 33.408 66.6287L33.426 66.59C33.4389 66.564 33.4553 66.5271 33.4733 66.4806L33.5432 66.3073C33.5656 66.2419 33.5947 66.1647 33.6192 66.0828C33.6441 66.0005 33.6728 65.909 33.6952 65.8141C33.722 65.7168 33.7426 65.616 33.7639 65.5086C33.8073 65.2936 33.8383 65.0607 33.8523 64.8172C33.8804 64.3303 33.8364 63.8034 33.6946 63.2896C33.6245 63.0324 33.5269 62.7799 33.4125 62.5317C33.2982 62.2805 33.1747 62.0336 33.0423 61.7915C32.9331 61.5937 32.8174 61.3996 32.6954 61.2094C32.913 61.1485 33.1285 61.0804 33.3416 61.0054C33.6016 60.9127 33.858 60.8104 34.1103 60.6988C34.3609 60.5895 34.6017 60.4658 34.825 60.3203C35.2727 60.0311 35.6559 59.6669 35.9587 59.2844C36.1035 59.1024 36.2351 58.9101 36.3525 58.7093C36.408 58.6149 36.4594 58.5259 36.5042 58.4354C36.5506 58.3494 36.5902 58.2621 36.6262 58.1841C36.6623 58.1065 36.6918 58.0298 36.7188 57.9659L36.782 57.79C36.7996 57.7434 36.8118 57.7048 36.8195 57.6768L36.8315 57.6361C37.1035 56.72 36.7603 55.695 35.9204 55.1445V55.1445Z" fill="#FFD469"></path><path d="M28.0496 62.474C29.7787 62.474 31.1805 61.0723 31.1805 59.3432C31.1805 57.6141 29.7787 56.2124 28.0496 56.2124C26.3205 56.2124 24.9188 57.6141 24.9188 59.3432C24.9188 61.0723 26.3205 62.474 28.0496 62.474Z" fill="#FFB636"></path><path d="M51.3438 92V55.6364H61.2159V69.8409H74.2841V55.6364H84.1562V92H74.2841V77.7955H61.2159V92H51.3438ZM108.446 67C108.351 65.8163 107.907 64.893 107.114 64.2301C106.333 63.5672 105.143 63.2358 103.545 63.2358C102.527 63.2358 101.693 63.3601 101.042 63.6087C100.403 63.8454 99.9292 64.1709 99.6214 64.5852C99.3137 64.9995 99.1539 65.473 99.142 66.0057C99.1184 66.4437 99.1953 66.8402 99.3729 67.1953C99.5623 67.5386 99.8582 67.8523 100.261 68.1364C100.663 68.4086 101.178 68.6572 101.805 68.8821C102.433 69.107 103.179 69.3082 104.043 69.4858L107.026 70.125C109.038 70.5511 110.76 71.1134 112.192 71.8118C113.625 72.5102 114.797 73.3329 115.708 74.2798C116.62 75.215 117.288 76.2685 117.714 77.4403C118.152 78.6122 118.377 79.8906 118.389 81.2756C118.377 83.6667 117.78 85.6908 116.596 87.348C115.412 89.0052 113.719 90.2659 111.518 91.13C109.328 91.9941 106.694 92.4261 103.616 92.4261C100.456 92.4261 97.6979 91.9586 95.3423 91.0234C92.9986 90.0883 91.1757 88.6501 89.8736 86.7088C88.5833 84.7557 87.9323 82.258 87.9205 79.2159H97.2955C97.3546 80.3286 97.6328 81.2637 98.13 82.0213C98.6271 82.7789 99.3255 83.353 100.225 83.7436C101.137 84.1342 102.22 84.3295 103.474 84.3295C104.528 84.3295 105.41 84.1993 106.12 83.9389C106.83 83.6785 107.369 83.3175 107.736 82.8558C108.103 82.3942 108.292 81.8674 108.304 81.2756C108.292 80.7192 108.109 80.2339 107.754 79.8196C107.41 79.3935 106.842 79.0147 106.049 78.6832C105.256 78.34 104.185 78.0204 102.835 77.7244L99.2131 76.9432C95.9934 76.2448 93.4543 75.0788 91.5959 73.4453C89.7493 71.8 88.8319 69.5568 88.8438 66.7159C88.8319 64.4077 89.4474 62.3894 90.6903 60.6612C91.9451 58.9212 93.6792 57.5658 95.8928 56.5952C98.1181 55.6245 100.669 55.1392 103.545 55.1392C106.481 55.1392 109.02 55.6304 111.163 56.6129C113.305 57.5954 114.956 58.9804 116.116 60.7678C117.288 62.5433 117.88 64.6207 117.892 67H108.446ZM153.608 55.6364V92H145.369L132.23 72.8949H132.017V92H122.145V55.6364H130.525L143.451 74.6705H143.735V55.6364H153.608ZM158.277 92V55.6364H168.15V70.3381H168.647L179.584 55.6364H191.09L178.803 71.8295L191.374 92H179.584L171.417 78.3636L168.15 82.625V92H158.277Z" fill="white"></path><g filter="url(#filter0_d_338_20)"><path d="M23.0654 102.638C22.9294 102.922 22.7933 103.256 22.6572 103.64C22.5335 104.011 22.4717 104.345 22.4717 104.642C22.4717 104.827 22.5088 104.976 22.583 105.087C22.6572 105.198 22.7995 105.254 23.0098 105.254C23.2695 105.254 23.5911 105.18 23.9746 105.031C24.3704 104.87 24.791 104.666 25.2363 104.419C25.694 104.159 26.1641 103.868 26.6465 103.547C27.1413 103.213 27.6299 102.873 28.1123 102.526C28.5947 102.168 29.0524 101.815 29.4854 101.469C29.9307 101.11 30.3265 100.782 30.6729 100.485C30.7718 100.399 30.8893 100.337 31.0254 100.3C31.1615 100.263 31.279 100.244 31.3779 100.244C31.6253 100.244 31.8294 100.331 31.9902 100.504C32.151 100.677 32.2314 100.906 32.2314 101.19C32.2314 101.45 32.1449 101.741 31.9717 102.062C31.7985 102.384 31.4954 102.7 31.0625 103.009C30.2708 103.739 29.473 104.431 28.6689 105.087C27.8649 105.743 27.0609 106.324 26.2568 106.831C25.4652 107.326 24.6735 107.722 23.8818 108.019C23.1025 108.315 22.3418 108.464 21.5996 108.464C21.0924 108.464 20.6657 108.396 20.3193 108.26C19.9854 108.124 19.7132 107.938 19.5029 107.703C19.305 107.468 19.1628 107.19 19.0762 106.868C18.9896 106.547 18.9463 106.206 18.9463 105.848C18.9463 105.242 19.0329 104.623 19.2061 103.992C19.3916 103.349 19.6081 102.761 19.8555 102.229C20.2884 101.265 20.7275 100.306 21.1729 99.3535C21.6182 98.401 22.0264 97.529 22.3975 96.7373L28.0195 84.7695C28.2422 84.2871 28.5391 83.9469 28.9102 83.749C29.2936 83.5511 29.6771 83.4521 30.0605 83.4521C30.444 83.4521 30.7904 83.5573 31.0996 83.7676C31.4212 83.9779 31.582 84.318 31.582 84.7881C31.582 85.0107 31.5264 85.2458 31.415 85.4932C31.3161 85.7406 31.1862 86.0065 31.0254 86.291C30.7161 86.8724 30.3451 87.5837 29.9121 88.4248C29.4915 89.266 29.0339 90.1813 28.5391 91.1709C28.0566 92.1605 27.5557 93.1934 27.0361 94.2695C26.529 95.3333 26.028 96.3724 25.5332 97.3867C25.0508 98.401 24.5931 99.3659 24.1602 100.281C23.7396 101.184 23.3747 101.97 23.0654 102.638ZM39.1316 97.7764C38.5502 97.7764 37.9874 97.9248 37.4431 98.2217C36.9112 98.5062 36.4349 98.8896 36.0144 99.3721C35.6062 99.8421 35.2784 100.38 35.031 100.986C34.7836 101.58 34.6599 102.192 34.6599 102.823C34.6599 103.058 34.6784 103.318 34.7155 103.603C34.7527 103.875 34.8269 104.134 34.9382 104.382C35.0619 104.617 35.2351 104.815 35.4577 104.976C35.6804 105.136 35.9773 105.217 36.3484 105.217C36.9174 105.217 37.4678 105.068 37.9997 104.771C38.544 104.462 39.0264 104.066 39.447 103.584C39.8676 103.089 40.2015 102.533 40.4489 101.914C40.6963 101.296 40.82 100.671 40.82 100.04C40.82 99.7926 40.8015 99.5391 40.7644 99.2793C40.7396 99.0072 40.6654 98.7598 40.5417 98.5371C40.4304 98.3145 40.2634 98.1351 40.0407 97.999C39.8181 97.8506 39.515 97.7764 39.1316 97.7764ZM40.0964 94.5107C40.5665 94.5107 41.0674 94.5726 41.5993 94.6963C42.1436 94.82 42.6446 95.0303 43.1023 95.3271C43.5599 95.624 43.9372 96.0199 44.2341 96.5146C44.5433 96.9971 44.698 97.597 44.698 98.3145C44.698 98.6855 44.6485 99.1123 44.5495 99.5947C44.4506 100.065 44.3021 100.56 44.1042 101.079C44.2279 101.228 44.3702 101.333 44.531 101.395C44.6918 101.456 44.865 101.487 45.0505 101.487C45.3103 101.487 45.5948 101.413 45.904 101.265C46.2256 101.116 46.5534 100.924 46.8874 100.689C47.2214 100.454 47.5554 100.188 47.8894 99.8916C48.2234 99.5947 48.5388 99.2979 48.8357 99.001C49.1325 98.7041 49.3985 98.4258 49.6335 98.166C49.8809 97.8939 50.085 97.665 50.2458 97.4795C50.3324 97.3929 50.4376 97.3496 50.5612 97.3496C50.7344 97.3496 50.889 97.4424 51.0251 97.6279C51.1612 97.8011 51.2292 98.0485 51.2292 98.3701C51.2292 98.6917 51.1303 99.0628 50.9323 99.4834C50.7468 99.904 50.3943 100.343 49.8747 100.801C49.5779 101.122 49.2377 101.493 48.8542 101.914C48.4708 102.335 48.0626 102.73 47.6296 103.102C47.1967 103.473 46.7452 103.788 46.2751 104.048C45.8051 104.308 45.335 104.438 44.865 104.438C44.5433 104.438 44.2279 104.388 43.9187 104.289C43.6218 104.19 43.3187 104.029 43.0095 103.807C42.5642 104.499 42.057 105.13 41.488 105.699C40.919 106.268 40.282 106.757 39.5769 107.165C38.8842 107.573 38.1296 107.889 37.3132 108.111C36.5092 108.346 35.6495 108.464 34.7341 108.464C34.3877 108.464 33.9857 108.396 33.528 108.26C33.0704 108.124 32.6312 107.901 32.2107 107.592C31.8025 107.27 31.4561 106.856 31.1716 106.349C30.8871 105.841 30.7448 105.223 30.7448 104.493C30.7448 103.998 30.8252 103.405 30.9861 102.712C31.1469 102.019 31.3881 101.308 31.7097 100.578C32.0437 99.8359 32.4581 99.1061 32.9529 98.3887C33.46 97.6589 34.0599 97.0094 34.7527 96.4404C35.4454 95.859 36.237 95.3952 37.1277 95.0488C38.0183 94.6901 39.0079 94.5107 40.0964 94.5107ZM66.0893 103.844C65.1616 104.549 64.2338 105.105 63.3061 105.514C62.3784 105.91 61.3517 106.107 60.226 106.107C59.8549 106.107 59.4962 106.039 59.1498 105.903C58.8035 105.767 58.352 105.526 57.7954 105.18C56.9789 106.256 56.1564 107.072 55.3276 107.629C54.5112 108.186 53.6577 108.464 52.767 108.464C52.3341 108.464 51.9197 108.383 51.5239 108.223C51.128 108.074 50.7817 107.845 50.4848 107.536C50.1879 107.227 49.9467 106.843 49.7612 106.386C49.588 105.928 49.5014 105.396 49.5014 104.79C49.5014 104.048 49.5818 103.25 49.7426 102.396C49.9158 101.531 50.1199 100.689 50.3549 99.873C50.5899 99.0566 50.8188 98.3021 51.0414 97.6094C51.2765 96.9167 51.462 96.3662 51.5981 95.958C51.8455 95.4385 52.1547 95.0674 52.5258 94.8447C52.9093 94.6097 53.2804 94.4922 53.6391 94.4922C53.7999 94.4922 53.9607 94.5231 54.1215 94.585C54.2947 94.6344 54.4493 94.7087 54.5854 94.8076C54.7215 94.9066 54.8328 95.0241 54.9194 95.1602C55.006 95.2962 55.0493 95.4447 55.0493 95.6055C55.0493 95.7415 55.0245 95.859 54.975 95.958C54.7895 96.5518 54.5668 97.2012 54.3071 97.9062C54.0597 98.599 53.8246 99.2979 53.602 100.003C53.3793 100.708 53.1876 101.401 53.0268 102.081C52.8784 102.749 52.8041 103.361 52.8041 103.918C52.8041 104.005 52.8165 104.122 52.8412 104.271C52.866 104.407 52.8969 104.543 52.934 104.679C52.9711 104.802 53.0206 104.914 53.0825 105.013C53.1443 105.099 53.2123 105.143 53.2866 105.143C53.6082 105.143 53.9669 104.963 54.3627 104.604C54.7586 104.246 55.1915 103.751 55.6616 103.12C56.0698 102.687 56.4532 102.18 56.812 101.599C57.183 101.005 57.5294 100.399 57.851 99.7803C58.185 99.1618 58.5004 98.5557 58.7973 97.9619C59.1065 97.3558 59.4034 96.8177 59.6879 96.3477C59.9848 95.8652 60.2755 95.4818 60.56 95.1973C60.8445 94.9004 61.1352 94.752 61.4321 94.752C61.9392 94.752 62.298 94.9189 62.5082 95.2529C62.7185 95.5745 62.8237 95.9642 62.8237 96.4219C62.8237 96.9414 62.7371 97.4176 62.5639 97.8506C62.4031 98.2835 62.1804 98.735 61.8959 99.2051C61.6114 99.6628 61.2713 100.176 60.8754 100.745C60.492 101.302 60.0714 101.97 59.6137 102.749C59.8116 103.009 60.1209 103.139 60.5414 103.139C60.9868 103.139 61.4444 103.083 61.9145 102.972C62.3969 102.86 62.8732 102.706 63.3432 102.508C63.8133 102.298 64.2771 102.05 64.7348 101.766C65.2049 101.469 65.6564 101.147 66.0893 100.801C66.2748 100.689 66.448 100.634 66.6088 100.634C66.8315 100.634 67.0108 100.733 67.1469 100.931C67.2954 101.129 67.3696 101.382 67.3696 101.691C67.3696 102.025 67.2706 102.39 67.0727 102.786C66.8748 103.17 66.547 103.522 66.0893 103.844ZM74.8263 97.0527C74.7645 97.0404 74.7088 97.0342 74.6593 97.0342C74.6099 97.0342 74.5542 97.0342 74.4923 97.0342C74.0223 97.0342 73.5832 97.127 73.175 97.3125C72.7668 97.498 72.3895 97.7454 72.0431 98.0547C71.7091 98.3516 71.4061 98.6917 71.1339 99.0752C70.8742 99.4587 70.6392 99.8421 70.4289 100.226C70.2186 100.597 70.0392 100.955 69.8908 101.302C69.7547 101.648 69.6496 101.939 69.5754 102.174C70.0083 101.951 70.4536 101.698 70.9113 101.413C71.3813 101.129 71.8205 100.856 72.2287 100.597C72.6369 100.337 72.9894 100.102 73.2863 99.8916C73.5955 99.6813 73.812 99.5391 73.9357 99.4648C74.4923 99.1185 74.8758 98.7969 75.0861 98.5C75.2964 98.1908 75.4015 97.9248 75.4015 97.7021C75.4015 97.5166 75.3397 97.3682 75.216 97.2568C75.1046 97.1455 74.9748 97.0775 74.8263 97.0527ZM75.4943 94.4922C76.521 94.4922 77.2879 94.7396 77.7951 95.2344C78.3022 95.7292 78.5558 96.4157 78.5558 97.2939C78.5558 97.8135 78.4198 98.3577 78.1476 98.9268C77.8755 99.4958 77.4054 100.077 76.7375 100.671C76.0695 101.252 75.1727 101.852 74.047 102.471C72.9338 103.077 71.536 103.689 69.8537 104.308C69.9155 104.666 70.1073 104.951 70.4289 105.161C70.7505 105.359 71.1772 105.458 71.7091 105.458C72.2782 105.458 72.8843 105.378 73.5275 105.217C74.1831 105.044 74.8263 104.827 75.4572 104.567C76.1004 104.308 76.7251 104.029 77.3312 103.732C77.9373 103.423 78.4816 103.132 78.964 102.86C79.4588 102.588 79.867 102.353 80.1886 102.155C80.5226 101.957 80.7453 101.834 80.8566 101.784C80.9679 101.71 81.0669 101.667 81.1535 101.654C81.2524 101.642 81.339 101.636 81.4132 101.636C81.5617 101.636 81.6854 101.673 81.7843 101.747C81.8833 101.809 81.9637 101.889 82.0255 101.988C82.0998 102.075 82.1492 102.174 82.174 102.285C82.1987 102.384 82.2111 102.471 82.2111 102.545C82.2111 102.656 82.1987 102.792 82.174 102.953C82.1492 103.102 82.0565 103.275 81.8957 103.473C81.8338 103.535 81.6235 103.701 81.2648 103.974C80.9185 104.246 80.467 104.567 79.9103 104.938C79.3537 105.31 78.7043 105.705 77.9621 106.126C77.2323 106.534 76.453 106.911 75.6242 107.258C74.8078 107.604 73.9543 107.889 73.0636 108.111C72.173 108.346 71.2948 108.464 70.4289 108.464C69.6867 108.464 69.0249 108.322 68.4435 108.037C67.8745 107.753 67.3859 107.369 66.9777 106.887C66.5819 106.404 66.2788 105.848 66.0685 105.217C65.8582 104.586 65.7531 103.924 65.7531 103.231C65.7531 102.7 65.8582 102.118 66.0685 101.487C66.2788 100.844 66.5819 100.201 66.9777 99.5576C67.3735 98.9144 67.856 98.2897 68.425 97.6836C69.0063 97.0651 69.6558 96.5208 70.3732 96.0508C71.0907 95.5807 71.8761 95.2035 72.7296 94.9189C73.5955 94.6344 74.5171 94.4922 75.4943 94.4922ZM106.495 97.4609C105.851 97.4857 105.239 97.5042 104.658 97.5166C104.089 97.529 103.532 97.5413 102.988 97.5537C102.444 97.5537 101.906 97.5537 101.374 97.5537C100.842 97.5537 100.304 97.5537 99.7594 97.5537C99.4378 98.1846 99.0729 98.9206 98.6646 99.7617C98.2688 100.59 97.8482 101.463 97.4029 102.378C96.97 103.293 96.5309 104.221 96.0855 105.161C95.6526 106.089 95.2382 106.973 94.8424 107.814C94.4466 108.643 94.0878 109.392 93.7662 110.06C93.4446 110.74 93.1848 111.278 92.9869 111.674C92.8508 111.958 92.6839 112.218 92.4859 112.453C92.288 112.701 92.0716 112.911 91.8365 113.084C91.6015 113.257 91.3603 113.387 91.1129 113.474C90.8655 113.573 90.6367 113.622 90.4264 113.622C90.1295 113.622 89.8635 113.548 89.6285 113.399C89.3935 113.251 89.276 113.016 89.276 112.694C89.276 112.534 89.3131 112.342 89.3873 112.119C89.4615 111.909 89.5667 111.661 89.7027 111.377L96.2525 97.498H95.2691C94.5888 97.498 94.1249 97.3929 93.8775 97.1826C93.6301 96.9723 93.5064 96.7249 93.5064 96.4404C93.5064 96.1436 93.6611 95.859 93.9703 95.5869C94.2796 95.3024 94.7311 95.1602 95.3248 95.1602H97.5143C98.3925 93.3913 99.2708 91.9316 100.149 90.7812C101.04 89.6309 101.912 88.7217 102.765 88.0537C103.619 87.3857 104.448 86.9219 105.252 86.6621C106.068 86.4023 106.847 86.2725 107.589 86.2725C107.936 86.2725 108.264 86.3405 108.573 86.4766C108.894 86.6126 109.173 86.8167 109.408 87.0889C109.655 87.361 109.853 87.7074 110.002 88.1279C110.15 88.5361 110.224 89.0186 110.224 89.5752C110.224 90.1071 110.15 90.6947 110.002 91.3379C109.964 91.5111 109.89 91.6595 109.779 91.7832C109.668 91.8945 109.544 91.9873 109.408 92.0615C109.272 92.1357 109.136 92.1914 109 92.2285C108.864 92.2533 108.746 92.2656 108.647 92.2656C108.4 92.2656 108.171 92.21 107.961 92.0986C107.75 91.9749 107.645 91.7894 107.645 91.542C107.645 91.3812 107.651 91.2327 107.664 91.0967C107.688 90.9606 107.701 90.8245 107.701 90.6885C107.701 90.1689 107.602 89.7979 107.404 89.5752C107.218 89.3525 106.965 89.2412 106.643 89.2412C106.26 89.2412 105.808 89.4082 105.289 89.7422C104.782 90.0762 104.262 90.5215 103.73 91.0781C103.211 91.6348 102.71 92.2718 102.227 92.9893C101.745 93.6943 101.349 94.418 101.04 95.1602H105.363C105.746 95.1602 106.105 95.1663 106.439 95.1787C106.773 95.1911 107.064 95.2282 107.311 95.29C107.571 95.3519 107.769 95.457 107.905 95.6055C108.053 95.7415 108.128 95.9456 108.128 96.2178C108.128 96.3538 108.103 96.4899 108.053 96.626C108.004 96.762 107.917 96.8919 107.794 97.0156C107.682 97.127 107.521 97.2259 107.311 97.3125C107.101 97.3867 106.829 97.4362 106.495 97.4609ZM108.478 102.638C108.342 102.922 108.206 103.256 108.07 103.64C107.946 104.011 107.884 104.345 107.884 104.642C107.884 104.827 107.921 104.976 107.995 105.087C108.07 105.198 108.212 105.254 108.422 105.254C108.682 105.254 109.004 105.18 109.387 105.031C109.783 104.87 110.203 104.666 110.649 104.419C111.106 104.159 111.576 103.868 112.059 103.547C112.554 103.213 113.042 102.873 113.525 102.526C114.007 102.168 114.465 101.815 114.898 101.469C115.343 101.11 115.739 100.782 116.085 100.485C116.184 100.399 116.302 100.337 116.438 100.3C116.574 100.263 116.691 100.244 116.79 100.244C117.038 100.244 117.242 100.331 117.403 100.504C117.563 100.677 117.644 100.906 117.644 101.19C117.644 101.45 117.557 101.741 117.384 102.062C117.211 102.384 116.908 102.7 116.475 103.009C115.683 103.739 114.885 104.431 114.081 105.087C113.277 105.743 112.473 106.324 111.669 106.831C110.878 107.326 110.086 107.722 109.294 108.019C108.515 108.315 107.754 108.464 107.012 108.464C106.505 108.464 106.078 108.396 105.732 108.26C105.398 108.124 105.126 107.938 104.915 107.703C104.717 107.468 104.575 107.19 104.489 106.868C104.402 106.547 104.359 106.206 104.359 105.848C104.359 105.242 104.445 104.623 104.618 103.992C104.804 103.349 105.02 102.761 105.268 102.229C105.701 101.265 106.14 100.306 106.585 99.3535C107.031 98.401 107.439 97.529 107.81 96.7373L113.432 84.7695C113.655 84.2871 113.951 83.9469 114.323 83.749C114.706 83.5511 115.09 83.4521 115.473 83.4521C115.856 83.4521 116.203 83.5573 116.512 83.7676C116.834 83.9779 116.994 84.318 116.994 84.7881C116.994 85.0107 116.939 85.2458 116.827 85.4932C116.729 85.7406 116.599 86.0065 116.438 86.291C116.129 86.8724 115.757 87.5837 115.325 88.4248C114.904 89.266 114.446 90.1813 113.951 91.1709C113.469 92.1605 112.968 93.1934 112.449 94.2695C111.941 95.3333 111.44 96.3724 110.946 97.3867C110.463 98.401 110.006 99.3659 109.573 100.281C109.152 101.184 108.787 101.97 108.478 102.638ZM124.544 97.7764C123.963 97.7764 123.4 97.9248 122.856 98.2217C122.324 98.5062 121.847 98.8896 121.427 99.3721C121.019 99.8421 120.691 100.38 120.443 100.986C120.196 101.58 120.072 102.192 120.072 102.823C120.072 103.058 120.091 103.318 120.128 103.603C120.165 103.875 120.239 104.134 120.351 104.382C120.474 104.617 120.647 104.815 120.87 104.976C121.093 105.136 121.39 105.217 121.761 105.217C122.33 105.217 122.88 105.068 123.412 104.771C123.956 104.462 124.439 104.066 124.859 103.584C125.28 103.089 125.614 102.533 125.861 101.914C126.109 101.296 126.232 100.671 126.232 100.04C126.232 99.7926 126.214 99.5391 126.177 99.2793C126.152 99.0072 126.078 98.7598 125.954 98.5371C125.843 98.3145 125.676 98.1351 125.453 97.999C125.231 97.8506 124.927 97.7764 124.544 97.7764ZM125.509 94.5107C125.979 94.5107 126.48 94.5726 127.012 94.6963C127.556 94.82 128.057 95.0303 128.515 95.3271C128.972 95.624 129.35 96.0199 129.647 96.5146C129.956 96.9971 130.11 97.597 130.11 98.3145C130.11 98.6855 130.061 99.1123 129.962 99.5947C129.863 100.065 129.715 100.56 129.517 101.079C129.64 101.228 129.783 101.333 129.943 101.395C130.104 101.456 130.277 101.487 130.463 101.487C130.723 101.487 131.007 101.413 131.316 101.265C131.638 101.116 131.966 100.924 132.3 100.689C132.634 100.454 132.968 100.188 133.302 99.8916C133.636 99.5947 133.951 99.2979 134.248 99.001C134.545 98.7041 134.811 98.4258 135.046 98.166C135.293 97.8939 135.497 97.665 135.658 97.4795C135.745 97.3929 135.85 97.3496 135.974 97.3496C136.147 97.3496 136.301 97.4424 136.438 97.6279C136.574 97.8011 136.642 98.0485 136.642 98.3701C136.642 98.6917 136.543 99.0628 136.345 99.4834C136.159 99.904 135.807 100.343 135.287 100.801C134.99 101.122 134.65 101.493 134.267 101.914C133.883 102.335 133.475 102.73 133.042 103.102C132.609 103.473 132.158 103.788 131.688 104.048C131.217 104.308 130.747 104.438 130.277 104.438C129.956 104.438 129.64 104.388 129.331 104.289C129.034 104.19 128.731 104.029 128.422 103.807C127.977 104.499 127.469 105.13 126.9 105.699C126.331 106.268 125.694 106.757 124.989 107.165C124.297 107.573 123.542 107.889 122.726 108.111C121.922 108.346 121.062 108.464 120.147 108.464C119.8 108.464 119.398 108.396 118.94 108.26C118.483 108.124 118.044 107.901 117.623 107.592C117.215 107.27 116.869 106.856 116.584 106.349C116.3 105.841 116.157 105.223 116.157 104.493C116.157 103.998 116.238 103.405 116.398 102.712C116.559 102.019 116.8 101.308 117.122 100.578C117.456 99.8359 117.87 99.1061 118.365 98.3887C118.872 97.6589 119.472 97.0094 120.165 96.4404C120.858 95.859 121.649 95.3952 122.54 95.0488C123.431 94.6901 124.42 94.5107 125.509 94.5107ZM136.324 98.9268C136.707 98.0732 137.023 97.3867 137.27 96.8672C137.518 96.3353 137.74 95.9271 137.938 95.6426C138.149 95.3457 138.353 95.1478 138.551 95.0488C138.761 94.9499 139.021 94.9004 139.33 94.9004C139.8 94.9004 140.202 95.055 140.536 95.3643C140.882 95.6611 141.055 96.0446 141.055 96.5146C141.055 96.626 141.037 96.7373 141 96.8486C140.975 96.96 140.938 97.0713 140.888 97.1826L137.734 104.642C137.685 104.741 137.648 104.852 137.623 104.976C137.61 105.087 137.604 105.18 137.604 105.254C137.604 105.415 137.635 105.538 137.697 105.625C137.771 105.699 137.845 105.736 137.92 105.736C138.056 105.736 138.192 105.705 138.328 105.644C138.476 105.582 138.643 105.477 138.829 105.328C139.027 105.167 139.262 104.957 139.534 104.697C139.818 104.425 140.165 104.085 140.573 103.677C140.956 103.269 141.352 102.78 141.761 102.211C142.169 101.63 142.565 101.023 142.948 100.393C143.344 99.7493 143.709 99.1061 144.043 98.4629C144.377 97.8073 144.667 97.2012 144.915 96.6445C145.1 96.2734 145.267 95.9766 145.416 95.7539C145.564 95.5189 145.706 95.3395 145.843 95.2158C145.991 95.0921 146.139 95.0117 146.288 94.9746C146.436 94.9251 146.609 94.9004 146.807 94.9004C147.562 94.9004 147.939 95.2282 147.939 95.8838C147.914 95.9827 147.896 96.0941 147.884 96.2178C147.884 96.3415 147.853 96.4837 147.791 96.6445L144.896 105.198C144.896 105.507 145.051 105.662 145.36 105.662C145.583 105.637 145.873 105.526 146.232 105.328C146.603 105.118 146.974 104.858 147.345 104.549C147.717 104.227 148.063 103.862 148.385 103.454C148.706 103.034 148.941 102.601 149.09 102.155C149.362 101.339 149.634 100.516 149.906 99.6875C150.191 98.8587 150.487 98.1104 150.797 97.4424C151.118 96.762 151.458 96.2054 151.817 95.7725C152.188 95.3271 152.596 95.0859 153.042 95.0488C153.438 95.0488 153.759 95.1787 154.007 95.4385C154.266 95.6859 154.396 96.0137 154.396 96.4219C154.396 96.9043 154.328 97.4238 154.192 97.9805C154.068 98.5371 153.901 99.0938 153.691 99.6504C153.481 100.207 153.227 100.745 152.93 101.265C152.646 101.784 152.349 102.254 152.04 102.675C152.126 102.935 152.306 103.064 152.578 103.064C153.06 103.064 153.512 103.027 153.932 102.953C154.365 102.879 154.78 102.774 155.176 102.638C155.584 102.489 155.986 102.316 156.382 102.118C156.79 101.92 157.21 101.691 157.643 101.432C157.841 101.296 158.039 101.228 158.237 101.228C158.484 101.228 158.707 101.32 158.905 101.506C159.103 101.691 159.202 101.933 159.202 102.229C159.202 102.502 159.078 102.78 158.831 103.064C158.596 103.349 158.28 103.627 157.885 103.899C157.489 104.172 157.037 104.425 156.53 104.66C156.035 104.895 155.528 105.105 155.009 105.291C154.501 105.464 154.007 105.606 153.524 105.718C153.054 105.817 152.64 105.866 152.281 105.866C151.588 105.866 150.877 105.668 150.147 105.272C149.281 106.312 148.378 107.103 147.438 107.647C146.511 108.192 145.564 108.464 144.599 108.464C143.709 108.464 143.066 108.235 142.67 107.777C142.286 107.307 142.094 106.627 142.094 105.736C141.167 106.676 140.295 107.369 139.478 107.814C138.674 108.247 137.845 108.464 136.992 108.464C136.448 108.464 135.99 108.396 135.619 108.26C135.26 108.136 134.969 107.957 134.747 107.722C134.524 107.487 134.363 107.215 134.264 106.905C134.178 106.584 134.135 106.237 134.135 105.866C134.135 105.26 134.221 104.623 134.394 103.955C134.567 103.275 134.772 102.619 135.007 101.988C135.254 101.357 135.495 100.776 135.73 100.244C135.978 99.6999 136.176 99.2607 136.324 98.9268ZM166.547 97.0527C166.485 97.0404 166.43 97.0342 166.38 97.0342C166.331 97.0342 166.275 97.0342 166.213 97.0342C165.743 97.0342 165.304 97.127 164.896 97.3125C164.488 97.498 164.11 97.7454 163.764 98.0547C163.43 98.3516 163.127 98.6917 162.855 99.0752C162.595 99.4587 162.36 99.8421 162.15 100.226C161.94 100.597 161.76 100.955 161.612 101.302C161.476 101.648 161.371 101.939 161.296 102.174C161.729 101.951 162.175 101.698 162.632 101.413C163.102 101.129 163.541 100.856 163.95 100.597C164.358 100.337 164.71 100.102 165.007 99.8916C165.317 99.6813 165.533 99.5391 165.657 99.4648C166.213 99.1185 166.597 98.7969 166.807 98.5C167.017 98.1908 167.123 97.9248 167.123 97.7021C167.123 97.5166 167.061 97.3682 166.937 97.2568C166.826 97.1455 166.696 97.0775 166.547 97.0527ZM167.215 94.4922C168.242 94.4922 169.009 94.7396 169.516 95.2344C170.023 95.7292 170.277 96.4157 170.277 97.2939C170.277 97.8135 170.141 98.3577 169.869 98.9268C169.597 99.4958 169.126 100.077 168.458 100.671C167.791 101.252 166.894 101.852 165.768 102.471C164.655 103.077 163.257 103.689 161.575 104.308C161.637 104.666 161.828 104.951 162.15 105.161C162.472 105.359 162.898 105.458 163.43 105.458C163.999 105.458 164.605 105.378 165.249 105.217C165.904 105.044 166.547 104.827 167.178 104.567C167.821 104.308 168.446 104.029 169.052 103.732C169.658 103.423 170.203 103.132 170.685 102.86C171.18 102.588 171.588 102.353 171.91 102.155C172.244 101.957 172.466 101.834 172.578 101.784C172.689 101.71 172.788 101.667 172.874 101.654C172.973 101.642 173.06 101.636 173.134 101.636C173.283 101.636 173.406 101.673 173.505 101.747C173.604 101.809 173.685 101.889 173.747 101.988C173.821 102.075 173.87 102.174 173.895 102.285C173.92 102.384 173.932 102.471 173.932 102.545C173.932 102.656 173.92 102.792 173.895 102.953C173.87 103.102 173.777 103.275 173.617 103.473C173.555 103.535 173.345 103.701 172.986 103.974C172.639 104.246 172.188 104.567 171.631 104.938C171.075 105.31 170.425 105.705 169.683 106.126C168.953 106.534 168.174 106.911 167.345 107.258C166.529 107.604 165.675 107.889 164.785 108.111C163.894 108.346 163.016 108.464 162.15 108.464C161.408 108.464 160.746 108.322 160.165 108.037C159.596 107.753 159.107 107.369 158.699 106.887C158.303 106.404 158 105.848 157.79 105.217C157.579 104.586 157.474 103.924 157.474 103.231C157.474 102.7 157.579 102.118 157.79 101.487C158 100.844 158.303 100.201 158.699 99.5576C159.095 98.9144 159.577 98.2897 160.146 97.6836C160.727 97.0651 161.377 96.5208 162.094 96.0508C162.812 95.5807 163.597 95.2035 164.451 94.9189C165.317 94.6344 166.238 94.4922 167.215 94.4922ZM180.702 97.1826C181.185 96.8857 181.68 96.6136 182.187 96.3662C182.706 96.1188 183.207 95.9085 183.69 95.7354C184.172 95.5498 184.63 95.4076 185.063 95.3086C185.508 95.1973 185.904 95.1416 186.25 95.1416C186.807 95.1416 187.234 95.2777 187.53 95.5498C187.84 95.8096 187.994 96.2549 187.994 96.8857C187.994 97.0218 187.988 97.1702 187.976 97.3311C187.963 97.4795 187.939 97.6403 187.902 97.8135C187.84 98.1351 187.654 98.5124 187.345 98.9453C187.036 99.3783 186.671 99.8298 186.25 100.3C185.842 100.77 185.397 101.246 184.914 101.729C184.444 102.199 184.005 102.638 183.597 103.046C183.201 103.442 182.867 103.788 182.595 104.085C182.335 104.382 182.205 104.586 182.205 104.697C182.205 104.796 182.211 104.864 182.224 104.901C182.236 104.938 182.292 104.957 182.391 104.957C183.059 104.673 183.801 104.332 184.617 103.937C185.446 103.528 186.269 103.114 187.085 102.693C187.902 102.273 188.675 101.865 189.404 101.469C190.134 101.061 190.753 100.708 191.26 100.411C191.371 100.349 191.483 100.3 191.594 100.263C191.718 100.213 191.829 100.188 191.928 100.188C192.151 100.188 192.336 100.263 192.485 100.411C192.633 100.56 192.707 100.757 192.707 101.005C192.707 101.289 192.584 101.617 192.336 101.988C192.101 102.347 191.699 102.724 191.13 103.12C190.697 103.392 190.209 103.701 189.664 104.048C189.132 104.382 188.57 104.734 187.976 105.105C187.394 105.464 186.801 105.817 186.195 106.163C185.601 106.509 185.026 106.819 184.469 107.091C183.912 107.363 183.387 107.586 182.892 107.759C182.409 107.92 181.989 108 181.63 108C180.777 108 180.133 107.796 179.7 107.388C179.28 106.979 179.07 106.454 179.07 105.811C179.07 105.712 179.076 105.637 179.088 105.588C179.175 105.044 179.335 104.518 179.571 104.011C179.806 103.504 180.071 103.021 180.368 102.563C180.665 102.106 180.974 101.673 181.296 101.265C181.618 100.844 181.908 100.454 182.168 100.096C182.44 99.7246 182.663 99.3844 182.836 99.0752C183.009 98.766 183.096 98.4814 183.096 98.2217C183.096 98.1598 183.084 98.098 183.059 98.0361C183.034 97.9743 182.978 97.9434 182.892 97.9434C182.743 97.9434 182.496 97.999 182.15 98.1104C181.816 98.2217 181.457 98.3701 181.073 98.5557C180.69 98.7412 180.325 98.9577 179.979 99.2051C179.632 99.4401 179.385 99.6937 179.237 99.9658C179.039 100.312 178.81 100.751 178.55 101.283C178.29 101.815 178.018 102.372 177.734 102.953C177.461 103.535 177.196 104.11 176.936 104.679C176.676 105.248 176.453 105.736 176.268 106.145C176.119 106.503 175.921 106.825 175.674 107.109C175.439 107.394 175.179 107.635 174.895 107.833C174.61 108.031 174.32 108.186 174.023 108.297C173.726 108.408 173.454 108.464 173.206 108.464C172.922 108.464 172.693 108.39 172.52 108.241C172.359 108.093 172.279 107.852 172.279 107.518C172.279 107.382 172.297 107.215 172.334 107.017C172.384 106.806 172.476 106.577 172.613 106.33C172.835 105.91 173.058 105.452 173.28 104.957C173.515 104.462 173.781 103.899 174.078 103.269C174.375 102.625 174.715 101.896 175.099 101.079C175.495 100.25 175.959 99.2979 176.49 98.2217C176.317 98.0732 176.169 97.8939 176.045 97.6836C175.934 97.4609 175.878 97.1888 175.878 96.8672C175.878 96.5703 175.94 96.3167 176.064 96.1064C176.187 95.8838 176.354 95.7044 176.565 95.5684C176.775 95.4323 177.016 95.3333 177.288 95.2715C177.573 95.1973 177.87 95.1602 178.179 95.1602C178.501 95.1602 178.822 95.1911 179.144 95.2529C179.465 95.3024 179.75 95.3828 179.997 95.4941C180.257 95.6055 180.467 95.7415 180.628 95.9023C180.789 96.0632 180.869 96.2487 180.869 96.459C180.869 96.4961 180.857 96.5456 180.832 96.6074C180.807 96.6693 180.777 96.7373 180.739 96.8115C180.715 96.8857 180.69 96.9538 180.665 97.0156C180.64 97.0775 180.628 97.127 180.628 97.1641C180.628 97.1888 180.634 97.2012 180.647 97.2012H180.665L180.702 97.1826ZM197.492 97.5537C198.247 97.9495 198.921 98.401 199.515 98.9082C200.108 99.4154 200.609 99.9535 201.018 100.522C201.438 101.079 201.754 101.648 201.964 102.229C202.186 102.811 202.298 103.38 202.298 103.937C202.298 104.642 202.094 105.279 201.685 105.848C201.29 106.404 200.764 106.881 200.108 107.276C199.465 107.66 198.723 107.951 197.882 108.148C197.053 108.359 196.212 108.464 195.358 108.464C194.715 108.464 194.09 108.39 193.484 108.241C192.878 108.105 192.322 107.889 191.814 107.592C191.32 107.295 190.893 106.918 190.534 106.46C190.175 105.99 189.922 105.433 189.773 104.79C189.749 104.691 189.736 104.611 189.736 104.549C189.736 104.215 189.854 103.93 190.089 103.695C190.324 103.448 190.584 103.324 190.868 103.324C191.004 103.324 191.153 103.349 191.313 103.398C191.487 103.448 191.616 103.559 191.703 103.732C191.864 104.029 192.087 104.295 192.371 104.53C192.668 104.765 192.996 104.969 193.354 105.143C193.713 105.303 194.09 105.433 194.486 105.532C194.894 105.619 195.29 105.662 195.674 105.662C196.07 105.662 196.447 105.625 196.806 105.551C197.177 105.477 197.498 105.359 197.77 105.198C198.055 105.037 198.278 104.833 198.438 104.586C198.599 104.339 198.68 104.035 198.68 103.677C198.68 103.046 198.537 102.465 198.253 101.933C197.968 101.401 197.597 100.912 197.14 100.467C196.694 100.009 196.181 99.5885 195.6 99.2051C195.031 98.8092 194.462 98.432 193.893 98.0732C193.831 98.0361 193.738 97.931 193.614 97.7578C193.49 97.5723 193.429 97.3867 193.429 97.2012C193.429 97.0527 193.466 96.9352 193.54 96.8486C193.738 96.5889 193.967 96.3229 194.226 96.0508C194.486 95.7786 194.765 95.5312 195.061 95.3086C195.358 95.0736 195.68 94.888 196.026 94.752C196.373 94.6035 196.731 94.5293 197.102 94.5293C197.375 94.5293 197.628 94.5664 197.863 94.6406C198.098 94.7148 198.296 94.8138 198.457 94.9375C198.618 95.0488 198.741 95.1787 198.828 95.3271C198.927 95.4632 198.976 95.5931 198.976 95.7168C198.976 95.89 198.933 96.057 198.847 96.2178C198.76 96.3786 198.643 96.5332 198.494 96.6816C198.358 96.8301 198.197 96.9785 198.012 97.127C197.838 97.2754 197.665 97.4176 197.492 97.5537Z" fill="#F0B13D"></path></g><defs><filter id="filter0_d_338_20" x="8.94629" y="73.4521" width="203.352" height="50.1699" filterUnits="userSpaceOnUse" color-interpolation-filters="sRGB"><feFlood flood-opacity="0" result="BackgroundImageFix"></feFlood><feColorMatrix in="SourceAlpha" type="matrix" values="0 0 0 0 0 0 0 0 0 0 0 0 0 0 0 0 0 0 127 0" result="hardAlpha"></feColorMatrix><feOffset></feOffset><feGaussianBlur stdDeviation="5"></feGaussianBlur><feComposite in2="hardAlpha" operator="out"></feComposite><feColorMatrix type="matrix" values="0 0 0 0 0 0 0 0 0 0 0 0 0 0 0 0 0 0 1 0"></feColorMatrix><feBlend mode="normal" in2="BackgroundImageFix" result="effect1_dropShadow_338_20"></feBlend><feBlend mode="normal" in="SourceGraphic" in2="effect1_dropShadow_338_20" result="shape"></feBlend></filter></defs></svg> 